<?xml version="1.0" encoding="UTF-8"?>
<svg version="1.1" xmlns="http://www.w3.org/2000/svg" width="128" height="128">
<path d="M0 0 C6.8899769 4.86858833 10.36152234 10.08456702 13 18 C13.15029988 20.06362991 13.24844448 22.13123915 13.31640625 24.19921875 C13.35830078 25.40771484 13.40019531 26.61621094 13.44335938 27.86132812 C13.48267578 29.12396484 13.52199219 30.38660156 13.5625 31.6875 C13.60568359 32.96173828 13.64886719 34.23597656 13.69335938 35.54882812 C13.7995486 38.69910852 13.90159533 41.84946839 14 45 C14.71027344 44.84402344 15.42054687 44.68804687 16.15234375 44.52734375 C17.07144531 44.33269531 17.99054688 44.13804688 18.9375 43.9375 C19.85402344 43.74027344 20.77054687 43.54304688 21.71484375 43.33984375 C22.46894531 43.22769531 23.22304687 43.11554687 24 43 C26.03729459 45.03729459 25.16404878 49.25932457 25.16796875 52.05859375 C25.17296135 53.28607079 25.17296135 53.28607079 25.17805481 54.53834534 C25.18313211 56.2793827 25.18546289 58.02042985 25.18530273 59.76147461 C25.18746526 62.39518985 25.20554477 65.0284697 25.22460938 67.66210938 C25.30988624 92.35226187 25.30988624 92.35226187 16.140625 101.9453125 C8.24527519 109.25922182 2.27933862 110.54027654 -8.40625 110.27734375 C-16.80224287 109.62939213 -22.3727972 106.26447149 -28 100 C-32.42564728 93.50393853 -34.13334473 88.3358412 -34.09765625 80.484375 C-34.09443359 79.23398438 -34.09121094 77.98359375 -34.08789062 76.6953125 C-34.07951172 75.39335938 -34.07113281 74.09140625 -34.0625 72.75 C-34.05798828 71.43257813 -34.05347656 70.11515625 -34.04882812 68.7578125 C-34.03704316 65.50516259 -34.02059011 62.25260416 -34 59 C-37.63 59.99 -41.26 60.98 -45 62 C-45.09940302 55.89856638 -45.17172047 49.79761153 -45.21972656 43.69555664 C-45.23975397 41.62288189 -45.26698411 39.550263 -45.30175781 37.4777832 C-45.350668 34.48635004 -45.37305793 31.49566845 -45.390625 28.50390625 C-45.41127014 27.58791153 -45.43191528 26.67191681 -45.45318604 25.72816467 C-45.45638703 16.40211746 -42.16453202 9.51039715 -35.8671875 2.7265625 C-26.35630187 -6.06802212 -10.80118987 -7.05511246 0 0 Z M-30.80078125 16.28125 C-33.58260388 20.26822705 -33.12870083 24.52463854 -33.09765625 29.16796875 C-33.09553383 30.36018791 -33.09553383 30.36018791 -33.09336853 31.57649231 C-33.08777378 34.11353325 -33.07522228 36.65048575 -33.0625 39.1875 C-33.05748432 40.90820185 -33.05292153 42.62890508 -33.04882812 44.34960938 C-33.03780607 48.5664403 -33.02054506 52.78320516 -33 57 C-31.741875 56.855625 -30.48375 56.71125 -29.1875 56.5625 C-28.47980469 56.48128906 -27.77210937 56.40007812 -27.04296875 56.31640625 C-24.80603607 56.02829265 -24.80603607 56.02829265 -22 55 C-22.02094727 55.83660156 -22.04189453 56.67320313 -22.06347656 57.53515625 C-22.13211966 60.67362309 -22.18202563 63.81170416 -22.21972656 66.95068359 C-22.24946045 68.96347627 -22.30031729 70.97592134 -22.3515625 72.98828125 C-22.4324611 81.03769154 -22.37712536 87.44856752 -16.51635742 93.54272461 C-12.3016006 97.2660748 -8.79674765 98.37024996 -3.19140625 98.27734375 C2.28529068 97.58421455 6.04272 95.2027364 9.4375 90.9375 C12.0683312 85.99153734 12.1323007 81.86994273 12.09765625 76.39453125 C12.0962413 75.55532639 12.09482635 74.71612152 12.09336853 73.85148621 C12.08777215 71.17178784 12.07522035 68.4921731 12.0625 65.8125 C12.05748453 63.99544392 12.05292171 62.17838652 12.04882812 60.36132812 C12.03780391 55.90751987 12.02054178 51.45377411 12 47 C8.37 47.99 4.74 48.98 1 50 C1.02356567 48.78268188 1.02356567 48.78268188 1.04760742 47.54077148 C1.11022907 43.83975276 1.14907772 40.13884583 1.1875 36.4375 C1.21263672 35.16068359 1.23777344 33.88386719 1.26367188 32.56835938 C1.41447879 21.97088764 1.41447879 21.97088764 -3.71875 13.0390625 C-4.3065625 12.57242187 -4.894375 12.10578125 -5.5 11.625 C-6.0878125 11.14289062 -6.675625 10.66078125 -7.28125 10.1640625 C-16.12821141 4.17225682 -24.8886012 9.20525498 -30.80078125 16.28125 Z " fill="#F2579C" transform="translate(73,11)"/>
<path d="M0 0 C6.8899769 4.86858833 10.36152234 10.08456702 13 18 C13.08358958 20.21089945 13.10731764 22.42426078 13.09765625 24.63671875 C13.09443359 25.93544922 13.09121094 27.23417969 13.08789062 28.57226562 C13.07953531 29.94401108 13.07107037 31.31575587 13.0625 32.6875 C13.05748335 34.07096195 13.05292073 35.45442563 13.04882812 36.83789062 C13.03702529 40.22530395 13.02056019 43.61263033 13 47 C9.04 47.99 5.08 48.98 1 50 C0.96261719 48.05996094 0.92523438 46.11992188 0.88671875 44.12109375 C0.82104652 41.55987691 0.75459962 38.99867985 0.6875 36.4375 C0.65366211 34.52227539 0.65366211 34.52227539 0.61914062 32.56835938 C0.43652082 22.14193463 0.43652082 22.14193463 -4.5 13.2578125 C-9.6011435 9.40538642 -13.64733333 8.34782509 -20 9 C-25.26594344 10.85856827 -27.79395768 13.60314196 -31 18 C-32.26625424 21.79876271 -32.23298547 25.42421926 -32.31640625 29.38671875 C-32.33718735 30.20372757 -32.35796844 31.02073639 -32.37937927 31.86250305 C-32.44473079 34.47075034 -32.50369273 37.07909775 -32.5625 39.6875 C-32.60569892 41.45639054 -32.64931365 43.22527097 -32.69335938 44.99414062 C-32.80039743 49.32932463 -32.90170544 53.66460929 -33 58 C-37.0188515 59.81242323 -40.61110675 61.33501617 -45 62 C-45.09940302 55.89856638 -45.17172047 49.79761153 -45.21972656 43.69555664 C-45.23975397 41.62288189 -45.26698411 39.550263 -45.30175781 37.4777832 C-45.350668 34.48635004 -45.37305793 31.49566845 -45.390625 28.50390625 C-45.41127014 27.58791153 -45.43191528 26.67191681 -45.45318604 25.72816467 C-45.45638703 16.40211746 -42.16453202 9.51039715 -35.8671875 2.7265625 C-26.35630187 -6.06802212 -10.80118987 -7.05511246 0 0 Z " fill="#216C53" transform="translate(73,11)"/>
<path d="M0 0 C3.26799358 0.60199882 6.12793722 0.01051108 9.375 -0.5625 C9.375 3.7275 9.375 8.0175 9.375 12.4375 C4.14520753 16.17306605 -0.28641572 15.41104016 -6.50390625 14.6640625 C-9.48396132 14.4477381 -11.73423757 14.79975494 -14.625 15.4375 C-15.625 14.4375 -15.625 14.4375 -15.72265625 11.49609375 C-15.71105469 10.30113281 -15.69945312 9.10617188 -15.6875 7.875 C-15.67847656 6.67746094 -15.66945312 5.47992188 -15.66015625 4.24609375 C-15.64855469 3.31925781 -15.63695312 2.39242187 -15.625 1.4375 C-10.67824886 -1.40043206 -5.48753155 -1.17589962 0 0 Z " fill="#216D53" transform="translate(60.625,32.5625)"/>
<path d="M0 0 C3.00697829 1.53547827 4.53577667 2.61886352 5.62890625 5.87109375 C6.27092057 9.44609981 6.21701031 11.50087629 4.75 14.875 C2.25681976 17.90243315 0.5913844 18.92189263 -3.3125 19.4375 C-8.12977349 18.86595908 -9.89182755 17.71464513 -13 14 C-13.80389864 10.82460036 -13.75379649 8.18205694 -13 5 C-9.60185189 -0.2034143 -5.85748145 -1.24249607 0 0 Z " fill="#F2599E" transform="translate(72,83)"/>
</svg>
