<svg width="111" height="14" viewBox="0 0 111 14" fill="none" xmlns="http://www.w3.org/2000/svg">
<mask id="mask0_278_9668" style="mask-type:luminance" maskUnits="userSpaceOnUse" x="0" y="1" width="52" height="12">
<path d="M10.9148 9.2803C10.9144 9.46205 10.9698 9.63984 11.0742 9.79116C11.1786 9.94248 11.3272 10.0605 11.5012 10.1304C11.6752 10.2002 11.8668 10.2187 12.0517 10.1835C12.2366 10.1483 12.4065 10.061 12.54 9.93264C12.6734 9.80427 12.7643 9.64062 12.8012 9.46239C12.8382 9.28416 12.8194 9.09938 12.7474 8.93142C12.6754 8.76347 12.5533 8.6199 12.3966 8.51888C12.24 8.41786 12.0557 8.36394 11.8672 8.36394C11.615 8.36394 11.3731 8.46041 11.1945 8.6322C11.016 8.804 10.9154 9.03707 10.9148 9.2803ZM41.7388 5.90545C41.7388 5.92879 41.763 8.31939 41.7388 9.46909C41.7059 10.0437 41.4422 10.5835 41.0037 10.9739C40.5651 11.3643 39.9862 11.5747 39.3896 11.5606H39.3544C37.7002 11.5415 37.1855 10.0439 37.1855 9.50091V5.89485H35.9559V9.50091C35.9559 10.7927 37.0315 12.7188 39.3412 12.7442H39.3874C40.3053 12.7588 41.1928 12.427 41.8606 11.8195C42.5283 11.212 42.9235 10.3769 42.9619 9.49242C42.9839 8.32575 42.9619 5.99242 42.9619 5.88636L41.7388 5.90545ZM11.7397 5.88212C9.43001 5.90757 8.35437 7.83363 8.35437 9.12545V12.7315H9.58398V9.12545C9.58398 8.58242 10.0987 7.08485 11.7529 7.06576H11.7881C12.3863 7.0505 12.9671 7.2606 13.4073 7.65147C13.8476 8.04234 14.1126 8.58323 14.1461 9.15939C14.1681 10.3091 14.1461 12.6997 14.1461 12.723H15.3735C15.3735 12.6255 15.3977 10.2921 15.3735 9.11697C15.3307 8.23358 14.932 7.4012 14.2624 6.79702C13.5927 6.19283 12.7049 5.86457 11.7881 5.88212H11.7397ZM31.0748 5.88212C28.7652 5.90757 27.6895 7.83363 27.6895 9.12545V12.7315H28.9191V9.12545C28.9191 8.58242 29.4339 7.08485 31.088 7.06576C31.6915 7.04149 32.2806 7.24771 32.7274 7.63967C33.1743 8.03164 33.4427 8.57771 33.4747 9.15939C33.4967 10.3091 33.4747 12.6997 33.4747 12.723H34.7021C34.7021 12.6255 34.7263 10.2921 34.7021 9.11697C34.6643 8.23133 34.2687 7.39508 33.5999 6.78702C32.9312 6.17895 32.0422 5.84732 31.1232 5.86303H31.0836M20.9431 5.86303C19.5573 5.86303 17.4874 6.78576 17.461 9.32909C17.4368 11.4503 17.461 12.793 17.461 12.8079L18.6884 12.7867C18.6884 12.7739 18.6664 11.4439 18.6884 9.33969C18.7082 7.5303 20.116 7.04666 20.9431 7.04666H22.7864L22.7578 5.86303H20.9431ZM0 1.45727V7.24182H3.62067C3.98581 7.24182 5.80714 7.34788 5.80714 9.41394C5.80714 11.5351 3.87143 11.6455 3.65146 11.6518C3.35705 11.6673 3.06239 11.6263 2.7845 11.5313C2.50661 11.4363 2.25101 11.2891 2.0325 11.0982C1.50018 10.5976 1.22962 9.76394 1.22962 8.61848H0C0 10.1033 0.395942 11.2148 1.17463 11.9445C1.82835 12.5324 2.69402 12.8512 3.58767 12.8333H3.69105C4.85028 12.8036 7.04336 12.0506 7.04336 9.41394C7.04336 7.09545 5.32761 6.05818 3.62726 6.05818H1.22962V1.45727H0ZM44.4664 1.45727V7.24182H48.0871C48.4522 7.24182 50.2736 7.34788 50.2736 9.41394C50.2736 11.5351 48.3379 11.6455 48.1179 11.6518C47.8235 11.6674 47.5288 11.6265 47.2509 11.5315C46.973 11.4364 46.7174 11.2892 46.4989 11.0982C45.9666 10.5976 45.696 9.76394 45.696 8.61848H44.4664C44.4664 10.1033 44.8624 11.2148 45.6411 11.9445C46.293 12.531 47.1561 12.8498 48.0475 12.8333H48.1509C49.3101 12.8036 51.5032 12.0506 51.5032 9.41394C51.5032 7.09545 49.7874 6.05818 48.0871 6.05818H45.696V1.45727H44.4664ZM27.6895 5.79515H28.9191V1.43394H27.6895V5.79515Z" fill="white"/>
</mask>
<g mask="url(#mask0_278_9668)">
<path d="M51.501 1.43394H0V12.8355H51.501V1.43394Z" fill="url(#paint0_linear_278_9668)"/>
</g>
<path d="M57.3389 13.3785H56.7604V0.530302H57.3389V13.3785ZM58.4761 0.530302H57.8976V13.3785H58.4761V0.530302ZM59.6134 0.530302H59.0348V13.3785H59.6134V0.530302ZM66.9559 1.08818V0.530302H60.1721V13.3785H66.9559V12.8206H60.7506V12.2818H66.9559V11.7239H60.7506V11.1851H66.9559V10.6273H60.7506V8.33H63.9643V7.77212H60.7506V7.23333H63.9643V6.68182H60.7506V6.13666H63.9643V5.57879H60.7506V3.28788H66.9559V2.72576H60.7506V2.18697H66.9559V1.62909H60.7506V1.0903L66.9559 1.08818Z" fill="#1D1D1B"/>
<path d="M68.9312 13.3785H68.3395L76.6982 0.532423H77.2767L68.9312 13.3785ZM78.6779 0.530302H78.084L69.6967 13.3785H70.2884L78.6779 0.530302ZM80.0439 0.530302H79.4522L71.0649 13.3785H71.6588L80.0439 0.530302ZM81.4231 0.530302H80.8314L72.4375 13.3785H73.0292L81.4231 0.530302ZM68.4978 0.530302H67.9061L72.0965 6.92363L72.3913 6.46969L68.4978 0.530302ZM77.0766 13.3764H77.6683L75.583 10.167L75.297 10.6167L77.0766 13.3764ZM78.469 13.3764H79.0629L76.2847 9.11909L75.9899 9.56666L78.469 13.3764ZM69.8924 0.530302H69.2985L72.7762 5.88L73.0732 5.43242L69.8924 0.530302ZM79.8878 13.3764H80.4795L76.96 8.07333L76.663 8.52091L79.8878 13.3764ZM71.2364 0.530302H70.6425L73.4625 4.83848L73.7573 4.39303L71.2364 0.530302ZM77.3471 7.46878L81.2142 13.3785H81.8081L77.6419 7.01485L77.3471 7.46878ZM72.6046 0.530302H72.0129L74.1488 3.80333L74.4436 3.35576L72.6046 0.530302Z" fill="#1D1D1B"/>
<path d="M95.5055 5.30727C95.5055 9.24848 92.0168 10.133 90.796 10.133L87.2941 10.1458V9.57091H90.7982C91.865 9.57091 94.9137 8.7903 94.9137 5.32848C94.9137 1.86667 91.5922 1.1306 90.7696 1.1306H83.4138V13.3785H82.8353V0.530302H90.7674C92.2521 0.530302 95.5055 1.73303 95.5055 5.30303M90.8026 1.68636H83.9726V13.3785H84.5511V2.25909H90.8026C91.4009 2.25909 93.8161 2.80212 93.8161 5.31576C93.8161 7.82939 91.5988 8.41272 90.8245 8.41272H87.3051V8.98545H90.8245C91.755 8.98545 94.41 8.31303 94.41 5.31576C94.41 2.6006 91.9332 1.68636 90.8026 1.68636ZM90.6574 2.76606H85.1098V3.33879V13.3785H85.6883V3.33879H90.6574C91.0445 3.33879 92.6085 3.69303 92.6085 5.32424C92.6085 7.24818 90.6904 7.33515 90.6706 7.33515H87.3183V7.90788H90.6684C91.3283 7.90788 93.2002 7.43272 93.2002 5.32424C93.2002 3.41515 91.4515 2.76606 90.6552 2.76606M90.6904 3.89879H86.8255H86.247V13.3785H86.8255V4.46939H90.6948C90.9231 4.47983 91.1383 4.57556 91.2947 4.73631C91.4511 4.89705 91.5365 5.11019 91.5328 5.3306C91.5381 5.44124 91.5206 5.5518 91.4812 5.65584C91.4418 5.75988 91.3814 5.85533 91.3034 5.93665C91.2254 6.01796 91.1315 6.08352 91.027 6.12951C90.9225 6.1755 90.8096 6.20101 90.6948 6.20454H87.3271V6.77727H90.6948C90.8872 6.77343 91.0768 6.73286 91.2529 6.65791C91.4289 6.58295 91.5878 6.4751 91.7203 6.34058C91.8528 6.20606 91.9564 6.04754 92.0251 5.87418C92.0937 5.70083 92.126 5.51608 92.1202 5.3306C92.1232 4.95979 91.9759 4.60251 91.7096 4.335C91.4433 4.06749 91.0791 3.91095 90.6948 3.89879" fill="#1D1D1B"/>
<path d="M103.754 10.5742C103.008 10.5747 102.278 10.3616 101.658 9.96203C101.037 9.56246 100.553 8.99432 100.267 8.3295C99.9814 7.66468 99.9066 6.93305 100.052 6.22717C100.198 5.52129 100.557 4.87289 101.085 4.364C101.612 3.8551 102.285 3.50859 103.017 3.36829C103.749 3.22798 104.507 3.30021 105.197 3.57581C105.886 3.85142 106.475 4.31802 106.89 4.91659C107.304 5.51516 107.525 6.2188 107.525 6.93849C107.523 7.9024 107.126 8.82652 106.419 9.50811C105.712 10.1897 104.754 10.5731 103.754 10.5742ZM103.754 3.88394C103.128 3.88352 102.515 4.06231 101.994 4.39769C101.473 4.73308 101.066 5.20998 100.826 5.76809C100.586 6.3262 100.523 6.94043 100.645 7.5331C100.767 8.12576 101.069 8.67023 101.512 9.09762C101.954 9.52502 102.519 9.81615 103.133 9.93418C103.748 10.0522 104.385 9.99185 104.964 9.76072C105.543 9.52959 106.038 9.13808 106.386 8.63572C106.734 8.13336 106.92 7.54271 106.92 6.93849C106.918 6.12908 106.585 5.35312 105.991 4.78058C105.398 4.20805 104.594 3.88562 103.754 3.88394ZM103.741 11.7727C102.763 11.7727 101.807 11.4932 100.994 10.9694C100.181 10.4456 99.5475 9.70112 99.1731 8.83004C98.7987 7.95896 98.7005 7.0004 98.8909 6.07552C99.0814 5.15064 99.5519 4.30097 100.243 3.63392C100.934 2.96686 101.815 2.51237 102.774 2.3279C103.733 2.14343 104.727 2.23726 105.63 2.59752C106.534 2.95779 107.307 3.56832 107.85 4.35193C108.394 5.13555 108.685 6.05707 108.686 7C108.685 8.2649 108.164 9.47789 107.237 10.3727C106.31 11.2675 105.053 11.771 103.741 11.7727ZM103.741 2.81061C102.881 2.81019 102.04 3.05589 101.324 3.51663C100.608 3.97736 100.051 4.63242 99.7214 5.39892C99.392 6.16542 99.3059 7.0089 99.4738 7.82264C99.6417 8.63638 100.056 9.38381 100.665 9.97034C101.273 10.5569 102.048 10.9562 102.892 11.1177C103.736 11.2792 104.611 11.1956 105.406 10.8776C106.2 10.5596 106.879 10.0215 107.357 9.33124C107.834 8.64099 108.089 7.82969 108.088 7C108.087 5.88849 107.628 4.8228 106.813 4.03664C105.999 3.25049 104.894 2.80805 103.741 2.80637M103.741 12.8482C102.542 12.8486 101.369 12.506 100.371 11.8636C99.3737 11.2213 98.596 10.3081 98.1367 9.23947C97.6773 8.1709 97.5569 6.99495 97.7907 5.86038C98.0244 4.7258 98.6018 3.68356 99.4499 2.86546C100.298 2.04737 101.379 1.49017 102.555 1.26435C103.731 1.03852 104.951 1.15421 106.059 1.59678C107.167 2.03936 108.115 2.78893 108.781 3.75071C109.448 4.71248 109.803 5.84325 109.803 7C109.802 8.55015 109.162 10.0364 108.026 11.1327C106.89 12.229 105.349 12.8459 103.741 12.8482ZM103.741 1.71606C102.657 1.71606 101.598 2.02596 100.697 2.60657C99.7958 3.18717 99.0935 4.01241 98.6788 4.97793C98.2641 5.94344 98.1556 7.00586 98.367 8.03085C98.5784 9.05583 99.1003 9.99734 99.8666 10.7363C100.633 11.4753 101.609 11.9785 102.672 12.1824C103.735 12.3863 104.837 12.2817 105.838 11.8817C106.839 11.4818 107.695 10.8045 108.297 9.9356C108.899 9.06666 109.22 8.04507 109.22 7C109.218 5.5993 108.64 4.25662 107.613 3.26617C106.586 2.27573 105.194 1.71831 103.741 1.71606ZM103.741 14C102.305 14 100.902 13.5895 99.7083 12.8203C98.5145 12.0511 97.5841 10.9579 97.0347 9.67878C96.4853 8.3997 96.3416 6.99224 96.6217 5.63437C96.9017 4.2765 97.5931 3.02922 98.6083 2.05026C99.6234 1.07129 100.917 0.404603 102.325 0.134506C103.733 -0.13559 105.193 0.003033 106.519 0.532846C107.845 1.06266 108.979 1.95987 109.777 3.11101C110.574 4.26215 111 5.61553 111 7C111 8.85652 110.235 10.637 108.874 11.9497C107.513 13.2625 105.666 14 103.741 14ZM103.741 0.564245C102.421 0.564245 101.131 0.941696 100.033 1.64887C98.9358 2.35604 98.0804 3.36116 97.5753 4.53714C97.0702 5.71313 96.938 7.00714 97.1955 8.25556C97.453 9.50397 98.0887 10.6507 99.022 11.5508C99.9554 12.4508 101.145 13.0638 102.439 13.3121C103.734 13.5604 105.076 13.433 106.295 12.9459C107.515 12.4588 108.557 11.6339 109.29 10.5755C110.024 9.51716 110.415 8.27287 110.415 7C110.413 5.29365 109.709 3.65767 108.458 2.4511C107.207 1.24452 105.511 0.56593 103.741 0.564245Z" fill="#1D1D1B"/>
<defs>
<linearGradient id="paint0_linear_278_9668" x1="-0.0728752" y1="7.69576" x2="51.4281" y2="7.69576" gradientUnits="userSpaceOnUse">
<stop stop-color="#345552"/>
<stop offset="0.87" stop-color="#D45B95"/>
<stop offset="1" stop-color="#D45B95"/>
</linearGradient>
</defs>
</svg>
